 <svg version="1.0" xmlns="http://www.w3.org/2000/svg" width="700.000000pt" height="695.000000pt" viewBox="0 0 700.000000 695.000000" preserveAspectRatio="xMidYMid meet">
<metadata>
Created by potrace 1.12, written by Peter Selinger 2001-2015
</metadata>
<g transform="translate(0.000000,695.000000) scale(0.100000,-0.100000)" fill="#000000" stroke="none">
<path d="M4434 6632 c-59 -43 -162 -160 -197 -224 -32 -57 -32 -58 -67 -50
-70 14 -190 4 -247 -22 -161 -74 -383 -276 -506 -462 -68 -102 -187 -323 -187
-347 0 -8 -41 -20 -117 -35 -129 -25 -158 -41 -148 -82 4 -14 14 -33 23 -44
19 -21 89 -58 144 -75 l37 -12 -48 -97 c-27 -53 -61 -126 -76 -162 -15 -36
-30 -68 -34 -73 -4 -4 -45 10 -92 32 -46 22 -121 53 -166 70 -45 17 -100 39
-122 51 -47 24 -71 26 -71 5 0 -19 61 -53 200 -113 122 -52 220 -100 220 -106
0 -11 -70 -250 -75 -254 -3 -3 -35 0 -72 7 -59 11 -384 33 -518 35 -43 1 -50
-2 -50 -19 0 -18 11 -21 150 -32 248 -21 447 -43 464 -53 13 -7 15 -23 12 -87
-1 -43 -5 -81 -7 -85 -3 -4 -70 -47 -149 -94 -80 -48 -145 -91 -145 -96 0 -26
41 -13 160 52 72 40 134 70 136 67 3 -3 12 -37 20 -76 8 -39 24 -93 35 -119
12 -26 36 -83 54 -127 77 -185 114 -264 148 -315 21 -30 37 -64 37 -76 0 -11
9 -29 20 -39 23 -21 26 -35 7 -35 -28 0 -36 -21 -20 -59 13 -29 14 -62 9 -176
-4 -77 -9 -199 -12 -271 -6 -124 -8 -132 -29 -142 -12 -6 -36 -35 -53 -66 -18
-30 -64 -93 -103 -138 -40 -46 -89 -105 -109 -133 -21 -27 -102 -116 -181
-196 -123 -125 -158 -155 -244 -204 -54 -32 -129 -78 -165 -102 l-65 -45 -125
5 c-141 5 -196 21 -290 85 -55 37 -126 122 -187 224 -51 84 -51 98 -3 152 82
96 110 192 110 374 0 117 -10 156 -52 214 -10 14 -3 30 47 105 65 98 145 203
154 203 6 0 12 -19 43 -135 12 -48 69 -104 159 -157 38 -23 77 -56 98 -85 44
-59 102 -89 186 -98 56 -6 71 -4 112 16 105 52 153 167 153 363 0 251 -72 412
-208 466 -80 31 -260 -15 -401 -104 -114 -72 -133 -93 -139 -155 -4 -43 -10
-54 -38 -76 -37 -28 -135 -153 -177 -227 -15 -26 -32 -50 -37 -53 -6 -4 -29
10 -52 29 -69 59 -135 78 -258 74 l-105 -3 -63 -49 c-63 -50 -102 -99 -102
-130 0 -9 -18 -40 -39 -69 -76 -102 -141 -265 -162 -409 -22 -153 23 -396 106
-565 54 -109 129 -184 241 -240 59 -29 75 -42 89 -73 21 -46 70 -94 150 -148
85 -57 112 -69 277 -128 268 -96 357 -96 638 0 41 14 107 35 147 46 43 12 87
33 112 53 22 17 59 45 81 60 34 23 41 33 38 55 -4 36 -33 40 -66 9 -15 -14
-43 -33 -62 -42 -19 -10 -46 -26 -60 -36 -14 -10 -65 -28 -113 -39 -49 -11
-114 -32 -145 -46 -32 -14 -93 -35 -136 -46 -76 -19 -84 -20 -180 -5 -125 20
-365 103 -460 159 -84 50 -149 108 -166 148 -8 19 -32 40 -69 61 -71 40 -161
109 -196 150 -37 45 -90 153 -109 224 -46 176 -51 203 -50 315 0 98 4 128 28
205 50 157 133 305 172 305 24 0 27 23 4 40 l-22 17 61 54 c34 30 71 57 84 61
48 14 158 8 214 -12 57 -20 133 -81 133 -107 0 -8 11 -18 25 -23 23 -9 32 -27
38 -79 2 -20 -7 -27 -66 -51 -93 -38 -141 -72 -157 -110 -21 -51 1 -60 48 -19
22 19 72 48 111 66 l71 31 0 -51 c0 -83 -4 -88 -98 -137 -87 -45 -109 -72 -64
-78 12 -2 48 11 78 28 31 17 58 29 61 27 8 -8 -35 -84 -69 -123 -36 -41 -118
-84 -159 -84 -15 0 -32 -6 -38 -14 -20 -24 12 -38 80 -34 l61 3 16 -40 c25
-66 138 -230 193 -279 73 -65 177 -114 269 -126 180 -23 325 -5 377 47 11 11
62 43 114 73 82 46 114 73 247 209 84 86 174 183 200 216 25 33 82 103 126
157 l79 96 33 -26 c26 -21 32 -31 27 -52 -3 -18 1 -33 12 -44 25 -24 39 -15
45 27 4 29 13 42 38 57 54 33 64 70 56 223 -8 149 -4 165 76 297 22 36 43 80
46 98 8 38 13 39 47 11 36 -28 216 -105 312 -134 44 -13 127 -40 185 -59 132
-43 378 -115 538 -156 109 -28 135 -31 237 -28 l116 3 -7 -30 c-18 -84 -66
-215 -79 -215 -26 0 -43 -43 -56 -139 l-12 -94 27 -24 c34 -29 90 -30 150 -3
54 26 71 55 63 113 -5 37 -3 48 14 63 11 10 38 45 60 77 42 63 50 113 28 174
-9 28 -6 37 39 106 27 44 65 88 87 103 64 43 246 195 307 255 31 32 71 85 88
120 23 44 34 59 40 48 4 -8 25 -88 45 -179 21 -91 51 -203 67 -249 16 -46 38
-127 49 -180 11 -52 29 -127 40 -165 26 -86 36 -193 49 -526 6 -140 15 -313
21 -385 5 -71 14 -197 19 -280 4 -82 17 -190 28 -240 64 -284 87 -542 86 -957
l0 -358 37 0 38 0 8 57 c14 102 8 624 -10 805 -15 156 -26 225 -77 498 -19
102 -29 221 -51 635 -5 110 -18 304 -28 430 -16 205 -24 252 -66 425 -26 107
-60 232 -76 276 -16 45 -34 108 -40 140 -11 65 -47 202 -81 307 -21 67 -21 69
-3 145 9 42 31 122 46 177 21 71 32 140 39 235 6 74 15 139 20 144 6 6 10 34
10 63 0 33 5 55 14 60 37 22 55 127 32 193 -21 60 -20 83 5 106 17 15 20 27
16 57 -4 28 0 48 14 72 11 18 31 69 45 112 29 91 49 346 42 543 -5 120 -15
153 -77 254 -20 32 -21 37 -7 64 18 34 35 149 43 277 4 83 3 93 -19 125 -66
98 -181 84 -299 -36 -29 -30 -57 -54 -61 -54 -4 0 -35 35 -68 78 -58 73 -174
177 -232 208 -29 15 -150 43 -325 74 -62 11 -139 27 -170 35 -31 8 -72 15 -89
15 -28 0 -36 6 -63 54 -16 30 -40 61 -53 70 -36 26 -99 20 -144 -12z m126 -64
c11 -18 19 -37 17 -42 -2 -5 -25 -15 -52 -22 -28 -7 -77 -24 -109 -38 -51 -21
-63 -31 -83 -70 -23 -45 -40 -63 -50 -52 -11 10 69 120 138 189 79 79 108 86
139 35z m223 -123 c31 -8 105 -24 165 -34 182 -33 294 -60 321 -78 95 -61 194
-170 261 -286 23 -41 47 -68 72 -82 60 -34 220 -193 214 -213 -4 -12 3 -22 23
-33 42 -24 87 -126 94 -214 4 -38 0 -162 -8 -275 -15 -225 -33 -308 -87 -392
-21 -33 -28 -54 -23 -69 6 -19 4 -21 -16 -16 -50 11 -173 69 -218 101 -52 38
-148 76 -190 76 -68 0 -299 44 -396 75 -38 12 -109 32 -156 44 -47 11 -129 40
-180 65 -179 82 -301 103 -504 85 -109 -10 -149 -9 -250 4 -66 9 -154 19 -195
22 -107 9 -318 35 -365 45 -53 12 -271 95 -301 115 -13 8 -24 20 -24 25 0 11
85 29 186 38 l79 7 0 45 c1 36 14 68 65 160 109 197 182 300 288 402 111 108
200 176 287 221 56 29 68 31 162 31 59 0 107 -5 115 -11 7 -6 24 -13 38 -15
20 -2 26 -10 30 -37 3 -19 10 -36 16 -38 6 -2 36 36 65 85 46 76 62 93 104
116 85 46 222 59 328 31z m1091 -260 c8 -9 18 -30 21 -48 6 -30 -28 -283 -39
-295 -6 -6 -8 -4 -111 84 -38 34 -82 69 -97 79 -16 9 -28 25 -28 34 0 20 103
124 145 145 38 20 89 20 109 1z m-2437 -990 c101 -16 143 -25 143 -31 0 -2
-11 -21 -24 -42 -32 -49 -48 -107 -44 -157 2 -32 7 -40 23 -40 16 0 21 9 26
45 6 50 35 111 74 159 22 26 34 31 70 31 74 0 103 -10 113 -39 12 -31 26 -154
25 -230 0 -49 -3 -56 -34 -82 -50 -42 -98 -55 -151 -39 -74 21 -93 19 -93 -10
0 -39 54 -62 138 -58 l68 4 66 69 c36 39 70 81 75 95 9 23 4 143 -8 230 l-5
35 238 0 c131 0 244 -4 251 -8 10 -7 2 -20 -28 -54 -75 -81 -123 -222 -86
-252 21 -18 29 -9 45 49 29 100 83 175 154 211 54 28 96 16 121 -36 10 -22 36
-68 58 -102 51 -79 57 -123 28 -190 -19 -44 -30 -55 -76 -79 -50 -25 -59 -27
-102 -17 -26 6 -68 19 -94 29 -37 14 -50 16 -59 7 -30 -30 74 -93 165 -100 59
-5 64 -4 98 26 20 17 41 31 48 31 25 0 69 35 89 71 35 62 38 118 8 183 -15 32
-36 71 -49 88 -20 29 -21 31 -2 23 37 -16 176 -55 195 -55 11 0 47 -11 80 -25
33 -14 106 -32 162 -40 56 -9 118 -19 137 -23 l35 -8 -3 -369 -4 -370 -29 -69
c-31 -73 -60 -174 -113 -396 -55 -229 -77 -301 -95 -308 -21 -7 -31 -22 -31
-46 0 -10 -11 -31 -25 -48 -13 -16 -29 -48 -35 -71 -5 -23 -17 -55 -25 -70 -8
-16 -15 -34 -15 -41 0 -20 -70 -36 -157 -36 -108 0 -217 24 -538 118 -455 134
-593 189 -773 306 -161 105 -252 206 -334 376 -81 168 -165 368 -172 410 -3
19 -7 54 -11 77 l-5 43 57 29 c96 48 241 92 323 98 51 4 81 11 95 23 11 9 50
25 88 35 76 20 98 38 76 60 -8 7 -84 48 -169 90 -152 76 -350 193 -350 207 0
12 126 285 144 312 l15 24 63 -20 c35 -11 100 -26 145 -33z m-284 -412 c72
-46 171 -92 324 -153 11 -5 24 -13 27 -18 6 -10 -90 -39 -158 -48 -73 -10
-340 27 -363 50 -7 6 13 92 39 174 13 40 24 60 31 56 7 -4 51 -31 100 -61z
m2382 -36 c0 -38 9 -71 33 -121 l33 -70 -55 -55 c-31 -30 -58 -53 -61 -50 -2
3 0 57 6 120 6 63 8 147 5 187 l-6 73 22 -16 c19 -12 23 -25 23 -68z m284
-222 c1 -17 -1 -17 -9 -5 -5 8 -9 26 -9 40 0 23 1 23 9 5 5 -11 9 -29 9 -40z
m-2780 -47 c-45 -21 -84 -38 -87 -38 -6 0 5 88 13 99 2 5 39 1 80 -8 l76 -15
-82 -38z m2636 -125 c63 -96 59 -74 47 -223 -9 -103 -21 -170 -52 -285 -77
-279 -142 -411 -237 -481 -21 -16 -63 -49 -93 -74 -88 -73 -91 -75 -86 -59 2
8 19 58 36 112 43 132 60 224 110 591 13 93 29 170 38 185 37 60 109 169 140
213 29 42 37 47 60 42 15 -4 32 -13 37 -21z m-3279 -684 c3 -6 1 -16 -5 -22
-6 -6 -11 -26 -11 -44 0 -40 -22 -53 -49 -29 -18 17 -23 69 -8 94 10 15 63 16
73 1z m96 -126 c5 -52 -15 -107 -35 -100 -7 2 -15 28 -20 57 -6 43 -4 57 9 72
28 30 42 22 46 -29z m-487 -57 c-16 -122 74 -172 179 -101 20 14 40 25 44 25
4 0 21 -37 37 -81 42 -114 89 -201 113 -210 11 -4 31 -2 47 7 15 8 29 14 30
14 2 0 6 -16 9 -35 4 -21 17 -41 31 -51 20 -13 23 -20 14 -36 -15 -28 -69 -58
-104 -58 -76 0 -175 57 -175 101 0 11 -10 23 -23 28 -13 5 -29 16 -36 25 -7 9
-20 16 -28 16 -15 0 -110 67 -131 93 -21 24 -44 124 -49 205 -4 60 -1 77 13
93 28 31 36 22 29 -35z m1402 -67 c37 -23 37 -32 2 -99 -42 -82 -46 -82 -54
13 -6 79 -3 107 12 107 3 0 21 -9 40 -21z m-119 -586 c5 -34 -15 -63 -43 -63
-19 0 -25 5 -25 23 0 54 61 90 68 40z m1606 -245 c10 -1 24 -11 30 -20 15 -24
-9 -47 -58 -55 l-38 -6 7 49 c9 61 14 69 28 50 7 -8 21 -16 31 -18z"></path>
<path d="M5005 6268 c-42 -15 -57 -29 -52 -49 6 -23 -16 -126 -35 -164 -24
-48 -29 -80 -14 -101 21 -27 42 -4 62 67 19 66 67 130 114 149 24 10 39 10 76
0 74 -21 88 17 18 46 -19 8 -34 19 -34 26 0 33 -73 48 -135 26z m25 -68 c-15
-11 -26 -15 -29 -8 -4 12 17 28 39 28 10 0 7 -7 -10 -20z"></path>
<path d="M4591 6085 c-34 -39 -36 -47 -21 -76 11 -19 46 -25 65 -11 23 16 46
65 43 90 -5 43 -47 42 -87 -3z"></path>
<path d="M5137 6064 c-32 -25 -87 -75 -122 -111 -55 -56 -67 -65 -89 -59 -30
8 -35 -9 -7 -24 28 -15 45 -5 91 55 23 30 57 65 76 80 57 44 126 105 117 105
-4 0 -34 -21 -66 -46z"></path>
<path d="M4321 6031 c-22 -22 -35 -59 -29 -88 2 -12 14 -19 36 -21 27 -3 40 4
73 36 21 22 39 44 39 48 -1 22 -20 36 -57 41 -33 4 -45 1 -62 -16z"></path>
<path d="M4729 5990 c-22 -13 -33 -74 -19 -100 14 -26 40 -25 74 1 61 48 11
138 -55 99z"></path>
<path d="M4415 5841 c-42 -25 -82 -74 -90 -111 -10 -45 21 -92 71 -108 56 -19
101 -7 146 38 31 31 38 45 38 76 -1 48 -17 79 -56 105 -37 24 -71 24 -109 0z"></path>
<path d="M3850 5470 c0 -5 11 -10 25 -10 14 0 25 5 25 10 0 6 -11 10 -25 10
-14 0 -25 -4 -25 -10z"></path>
<path d="M3940 5470 c0 -5 9 -10 20 -10 11 0 20 5 20 10 0 6 -9 10 -20 10 -11
0 -20 -4 -20 -10z"></path>
<path d="M3768 5463 c-31 -5 -56 -30 -42 -43 15 -14 64 -23 64 -12 0 6 -5 12
-12 14 -17 6 0 28 23 28 10 0 19 5 19 10 0 10 -3 10 -52 3z"></path>
<path d="M4010 5460 c0 -5 7 -10 15 -10 8 0 15 5 15 10 0 6 -7 10 -15 10 -8 0
-15 -4 -15 -10z"></path>
<path d="M4070 5450 c0 -5 7 -10 15 -10 8 0 15 5 15 10 0 6 -7 10 -15 10 -8 0
-15 -4 -15 -10z"></path>
<path d="M4120 5440 c0 -5 7 -10 15 -10 8 0 15 5 15 10 0 6 -7 10 -15 10 -8 0
-15 -4 -15 -10z"></path>
<path d="M4170 5430 c0 -5 7 -10 15 -10 8 0 15 5 15 10 0 6 -7 10 -15 10 -8 0
-15 -4 -15 -10z"></path>
<path d="M4230 5420 c0 -5 5 -10 10 -10 6 0 10 5 10 10 0 6 -4 10 -10 10 -5 0
-10 -4 -10 -10z"></path>
<path d="M3990 5410 c0 -5 7 -10 15 -10 8 0 15 5 15 10 0 6 -7 10 -15 10 -8 0
-15 -4 -15 -10z"></path>
<path d="M4280 5410 c0 -5 5 -10 10 -10 6 0 10 5 10 10 0 6 -4 10 -10 10 -5 0
-10 -4 -10 -10z"></path>
<path d="M4040 5400 c0 -5 7 -10 15 -10 8 0 15 5 15 10 0 6 -7 10 -15 10 -8 0
-15 -4 -15 -10z"></path>
<path d="M4320 5400 c0 -5 7 -10 15 -10 8 0 15 5 15 10 0 6 -7 10 -15 10 -8 0
-15 -4 -15 -10z"></path>
<path d="M4090 5390 c0 -5 5 -10 10 -10 6 0 10 5 10 10 0 6 -4 10 -10 10 -5 0
-10 -4 -10 -10z"></path>
<path d="M4380 5390 c0 -5 7 -10 15 -10 8 0 15 5 15 10 0 6 -7 10 -15 10 -8 0
-15 -4 -15 -10z"></path>
<path d="M4130 5380 c0 -5 7 -10 15 -10 8 0 15 5 15 10 0 6 -7 10 -15 10 -8 0
-15 -4 -15 -10z"></path>
<path d="M4560 5380 c0 -5 7 -10 15 -10 8 0 15 5 15 10 0 6 -7 10 -15 10 -8 0
-15 -4 -15 -10z"></path>
<path d="M4180 5370 c0 -5 5 -10 10 -10 6 0 10 5 10 10 0 6 -4 10 -10 10 -5 0
-10 -4 -10 -10z"></path>
<path d="M4750 5370 c0 -5 9 -10 20 -10 11 0 20 5 20 10 0 6 -9 10 -20 10 -11
0 -20 -4 -20 -10z"></path>
<path d="M4220 5360 c0 -5 5 -10 10 -10 6 0 10 5 10 10 0 6 -4 10 -10 10 -5 0
-10 -4 -10 -10z"></path>
<path d="M4830 5360 c0 -5 9 -10 20 -10 11 0 20 5 20 10 0 6 -9 10 -20 10 -11
0 -20 -4 -20 -10z"></path>
<path d="M4260 5350 c0 -5 5 -10 10 -10 6 0 10 5 10 10 0 6 -4 10 -10 10 -5 0
-10 -4 -10 -10z"></path>
<path d="M4900 5350 c0 -5 5 -10 10 -10 6 0 10 5 10 10 0 6 -4 10 -10 10 -5 0
-10 -4 -10 -10z"></path>
<path d="M4310 5340 c0 -5 5 -10 10 -10 6 0 10 5 10 10 0 6 -4 10 -10 10 -5 0
-10 -4 -10 -10z"></path>
<path d="M4940 5340 c0 -5 5 -10 10 -10 6 0 10 5 10 10 0 6 -4 10 -10 10 -5 0
-10 -4 -10 -10z"></path>
<path d="M4360 5330 c0 -5 5 -10 10 -10 6 0 10 5 10 10 0 6 -4 10 -10 10 -5 0
-10 -4 -10 -10z"></path>
<path d="M4980 5332 c0 -10 110 -46 117 -38 6 6 5 6 -66 31 -51 17 -51 18 -51
7z"></path>
<path d="M4410 5320 c0 -5 9 -10 20 -10 11 0 20 5 20 10 0 6 -9 10 -20 10 -11
0 -20 -4 -20 -10z"></path>
<path d="M4510 5310 c0 -5 9 -10 20 -10 11 0 20 5 20 10 0 6 -9 10 -20 10 -11
0 -20 -4 -20 -10z"></path>
<path d="M4690 5300 c0 -5 11 -10 25 -10 14 0 25 5 25 10 0 6 -11 10 -25 10
-14 0 -25 -4 -25 -10z"></path>
<path d="M4800 5290 c0 -5 7 -10 15 -10 8 0 15 5 15 10 0 6 -7 10 -15 10 -8 0
-15 -4 -15 -10z"></path>
<path d="M4870 5280 c0 -5 5 -10 10 -10 6 0 10 5 10 10 0 6 -4 10 -10 10 -5 0
-10 -4 -10 -10z"></path>
<path d="M5115 5280 c3 -5 13 -10 21 -10 8 0 12 5 9 10 -3 6 -13 10 -21 10 -8
0 -12 -4 -9 -10z"></path>
<path d="M4910 5270 c0 -5 5 -10 10 -10 6 0 10 5 10 10 0 6 -4 10 -10 10 -5 0
-10 -4 -10 -10z"></path>
<path d="M4950 5260 c0 -5 5 -10 10 -10 6 0 10 5 10 10 0 6 -4 10 -10 10 -5 0
-10 -4 -10 -10z"></path>
<path d="M5196 5251 c14 -13 114 -44 121 -37 3 3 0 8 -8 11 -98 35 -132 43
-113 26z"></path>
<path d="M5005 5242 c6 -6 24 -14 40 -18 21 -4 27 -3 20 4 -5 6 -23 14 -40 18
-21 4 -27 3 -20 -4z"></path>
<path d="M5085 5210 c3 -5 13 -10 21 -10 8 0 12 5 9 10 -3 6 -13 10 -21 10 -8
0 -12 -4 -9 -10z"></path>
<path d="M5353 5187 c19 -15 27 -30 25 -47 -3 -28 25 -36 30 -9 4 21 -45 79
-66 79 -13 0 -10 -6 11 -23z"></path>
<path d="M5155 5180 c3 -5 13 -10 21 -10 8 0 12 5 9 10 -3 6 -13 10 -21 10 -8
0 -12 -4 -9 -10z"></path>
<path d="M5206 5161 c15 -14 54 -23 54 -13 0 5 -10 12 -22 16 -33 8 -44 8 -32
-3z"></path>
<path d="M5280 5141 c0 -10 50 -25 58 -16 8 7 1 11 -30 19 -16 3 -28 2 -28 -3z"></path>
<path d="M3683 5142 c-21 -13 -33 -62 -33 -136 0 -74 9 -96 42 -96 29 0 50 46
55 118 4 58 2 71 -17 95 -23 29 -28 31 -47 19z"></path>
<path d="M4193 5090 c3 -8 14 -39 23 -67 10 -29 21 -53 26 -53 11 0 10 10 -8
63 -8 25 -23 52 -31 59 -14 11 -15 11 -10 -2z"></path>
<path d="M4475 5042 c-6 -4 -22 -25 -38 -48 -22 -33 -27 -51 -27 -100 0 -100
40 -181 78 -158 9 6 18 24 18 40 1 16 9 49 18 73 19 51 21 172 4 189 -13 13
-38 15 -53 4z"></path>
<path d="M3530 4863 c0 -28 15 -62 23 -53 2 3 2 22 -1 43 -5 43 -22 50 -22 10z"></path>
<path d="M3942 4848 c-18 -18 -15 -34 14 -77 29 -45 50 -57 70 -40 22 18 17
39 -22 85 -38 47 -44 50 -62 32z"></path>
<path d="M3453 4783 c-24 -8 -43 -19 -43 -25 0 -6 8 -7 18 -3 9 3 36 11 60 18
23 6 42 15 42 19 0 12 -29 8 -77 -9z"></path>
<path d="M4289 4783 c-3 -26 4 -89 11 -97 4 -4 13 1 19 12 13 25 3 92 -15 92
-8 0 -14 -3 -15 -7z"></path>
<path d="M3917 4638 c-23 -18 -37 -62 -37 -114 0 -38 -5 -50 -32 -75 -78 -72
-172 -103 -213 -69 -20 16 -45 6 -45 -19 0 -13 12 -27 30 -36 63 -33 152 -9
230 61 44 40 43 40 71 -8 16 -29 91 -66 146 -73 49 -6 53 -9 64 -43 21 -66 86
-132 129 -132 15 0 12 26 -6 41 -37 31 -78 168 -59 199 4 7 36 -17 81 -59 85
-82 140 -123 206 -157 102 -52 106 -17 6 52 -39 26 -118 91 -176 143 -97 88
-104 96 -98 124 12 60 32 70 116 63 41 -4 150 -13 241 -21 92 -8 186 -21 210
-29 90 -30 321 -86 330 -81 15 10 10 32 -8 40 -60 23 -291 88 -363 101 -47 9
-130 18 -185 20 -55 2 -127 9 -160 15 -33 6 -101 11 -150 11 -151 0 -202 -38
-139 -103 24 -25 25 -32 19 -82 l-7 -55 -52 21 c-61 24 -90 49 -107 89 -10 24
-9 38 6 83 17 50 18 55 2 79 -20 29 -26 31 -50 14z"></path>
<path d="M4810 4432 c0 -5 12 -19 26 -33 72 -68 174 -301 182 -416 2 -40 9
-73 13 -73 14 0 10 90 -6 152 -20 80 -100 255 -140 310 -33 45 -75 79 -75 60z"></path>
<path d="M3132 4396 c-19 -42 -34 -149 -27 -196 3 -25 17 -80 31 -123 13 -43
24 -86 24 -95 0 -50 131 -269 220 -367 59 -65 168 -165 181 -165 4 0 -39 47
-95 104 -150 151 -268 336 -295 462 -6 27 -19 81 -30 119 -11 39 -20 84 -20
100 -1 32 21 138 34 168 11 27 -10 20 -23 -7z"></path>
<path d="M3814 4146 c-12 -31 71 -143 127 -172 61 -31 155 -5 181 51 19 42 -4
54 -42 21 -57 -48 -123 -28 -189 57 -43 57 -67 70 -77 43z"></path>
<path d="M5025 3823 c-18 -192 -166 -475 -341 -650 -43 -44 -65 -73 -56 -73 9
0 45 29 79 65 141 147 271 369 315 540 21 79 32 185 19 185 -5 0 -12 -30 -16
-67z"></path>
<path d="M3266 4645 c-18 -28 -20 -35 -7 -35 13 0 42 48 32 54 -5 3 -16 -5
-25 -19z"></path>
<path d="M6006 4052 c-8 -15 -22 -73 -31 -127 -15 -88 -35 -160 -60 -217 -10
-24 17 -24 38 0 34 37 47 88 94 345 7 37 -21 37 -41 -1z"></path>
<path d="M6187 4033 c-4 -3 -7 -30 -7 -58 0 -54 -22 -131 -59 -203 -25 -48
-27 -72 -7 -72 41 0 116 162 116 251 0 66 -21 105 -43 82z"></path>
<path d="M5 1990 c0 -1097 1 -1546 2 -997 2 548 2 1446 0 1995 -1 548 -2 99
-2 -998z"></path>
<path d="M3731 3156 c-52 -83 -59 -150 -46 -406 l8 -145 -47 -140 c-75 -224
-77 -287 -18 -481 17 -54 33 -116 37 -136 3 -20 15 -47 26 -60 18 -20 20 -21
13 -3 -4 11 -11 38 -16 60 -6 22 -23 83 -39 136 -58 187 -57 266 1 435 64 183
63 177 55 329 -14 252 -6 325 41 397 26 41 29 48 15 48 -5 0 -19 -15 -30 -34z"></path>
<path d="M1448 3010 c-41 -22 -73 -63 -63 -80 9 -15 30 -12 69 11 29 17 49 20
98 17 71 -3 83 10 37 44 -38 29 -97 32 -141 8z"></path>
<path d="M4650 2928 c0 -4 11 -30 25 -60 33 -71 32 -134 -5 -332 -35 -187 -36
-197 -10 -345 24 -135 25 -257 5 -364 -8 -43 -15 -109 -15 -145 0 -72 -8 -126
-38 -267 -11 -49 -27 -138 -37 -197 -9 -59 -24 -137 -34 -173 -10 -36 -16 -67
-12 -69 3 -2 19 -6 35 -10 45 -11 84 -43 108 -89 17 -33 23 -69 29 -172 8
-145 16 -195 31 -195 6 0 8 13 4 32 -4 18 -11 92 -15 164 -11 178 -40 238
-136 274 -24 9 -27 14 -22 48 8 71 58 347 78 437 11 50 24 149 30 220 5 72 13
148 19 170 16 66 11 223 -10 340 -26 140 -25 166 5 310 48 224 42 358 -15 410
-11 10 -20 16 -20 13z"></path>
<path d="M2615 2810 c-3 -6 -4 -19 0 -29 3 -11 -1 -46 -10 -79 -19 -75 -19
-105 0 -142 13 -24 22 -30 50 -30 46 0 77 44 83 117 5 65 -9 103 -55 143 -35
31 -57 37 -68 20z"></path>
<path d="M3230 1960 c-54 -28 -102 -83 -98 -111 5 -38 36 -35 80 7 32 32 40
36 48 24 6 -8 8 -37 4 -65 -4 -35 -1 -56 9 -69 35 -47 67 18 67 136 0 97 -32
120 -110 78z"></path>
<path d="M1911 1898 c-5 -13 -12 -31 -15 -41 -6 -17 -14 -18 -110 -12 -122 8
-158 0 -206 -50 -28 -28 -34 -44 -38 -90 -3 -32 1 -67 8 -85 14 -35 37 -42 24
-7 -4 12 -8 48 -8 79 -1 47 3 61 24 83 48 51 73 58 188 51 115 -8 124 -5 148
52 17 41 17 42 4 42 -6 0 -14 -10 -19 -22z"></path>
<path d="M3028 1822 c-25 -15 -80 -47 -121 -72 -42 -25 -90 -53 -109 -64 -19
-11 -28 -21 -20 -23 14 -5 118 51 210 113 34 24 72 46 82 49 11 4 20 11 20 16
0 14 -11 11 -62 -19z"></path>
<path d="M3561 1736 c-43 -15 -84 -55 -132 -129 -39 -59 -42 -60 -53 -15 -24
104 -194 173 -328 134 -46 -13 -66 -27 -117 -81 -83 -89 -105 -134 -105 -215
-1 -36 3 -86 7 -112 l8 -47 -46 -6 c-66 -10 -85 -39 -85 -127 0 -91 15 -119
82 -148 40 -18 77 -25 151 -28 54 -2 96 -7 94 -11 -29 -53 -39 -91 -34 -134 8
-83 72 -144 209 -197 75 -29 90 -32 158 -27 41 4 89 9 106 13 31 6 34 3 85
-72 214 -320 364 -426 626 -441 185 -11 303 31 471 166 109 89 173 163 280
331 130 202 145 245 197 548 50 293 61 390 47 404 -9 9 -15 9 -23 1 -12 -12
-85 -310 -120 -489 -34 -178 -60 -242 -161 -403 -168 -267 -339 -421 -519
-467 -122 -31 -314 -3 -429 64 -71 41 -143 115 -252 259 -55 74 -108 137 -117
142 -9 5 -69 9 -133 10 -155 3 -248 30 -327 96 -27 23 -31 33 -31 74 0 73 29
107 133 160 80 41 94 45 177 49 94 5 136 -5 175 -39 29 -25 133 -59 182 -59
49 0 57 10 74 92 17 78 54 146 84 154 42 10 84 -42 62 -77 -8 -12 -6 -26 6
-52 9 -19 17 -44 17 -55 0 -12 5 -24 10 -27 19 -12 38 14 45 60 6 42 10 47 54
69 61 31 63 35 100 139 49 139 41 172 -40 160 -24 -3 -76 -6 -115 -7 -44 -1
-77 -6 -87 -15 -13 -10 -20 -11 -31 -2 -17 14 -272 8 -331 -8 -22 -6 -67 -12
-100 -13 l-60 -3 -5 63 c-5 63 2 98 13 68 3 -8 17 -22 31 -31 22 -15 27 -15
53 -1 15 8 50 33 77 55 26 23 52 41 58 41 5 0 21 -13 35 -30 30 -37 81 -40
132 -9 18 11 34 19 36 17 1 -2 8 -13 14 -26 8 -14 18 -21 27 -18 17 6 18 1 4
-25 -9 -16 -7 -19 9 -19 12 0 23 11 29 28 6 15 27 45 46 67 35 39 36 39 51 21
8 -11 15 -31 15 -44 0 -17 4 -23 15 -19 8 4 17 2 20 -4 4 -5 11 -7 16 -4 17
11 49 -6 49 -25 0 -30 19 -33 30 -5 25 65 -4 111 -41 66 -25 -31 -52 -20 -84
35 -35 59 -114 107 -166 99 -30 -4 -44 1 -80 28 -83 63 -170 82 -248 53z m47
-78 c19 -19 15 -48 -8 -48 -23 0 -35 22 -26 45 7 18 18 19 34 3z m148 -9 c3
-6 1 -16 -4 -21 -13 -13 -45 8 -36 23 7 12 31 11 40 -2z m-651 -38 c0 -22 -32
-38 -46 -24 -9 9 -9 16 1 28 15 19 45 16 45 -4z m95 -12 c0 -24 -23 -21 -28 4
-2 10 3 17 12 17 10 0 16 -9 16 -21z m745 -29 c11 -17 -5 -32 -21 -19 -8 6
-14 15 -14 20 0 12 27 11 35 -1z m-775 -80 c0 -6 11 -22 25 -35 30 -31 73 -32
109 -4 36 29 49 15 54 -59 l4 -59 -48 -6 c-27 -3 -127 -15 -223 -27 -118 -15
-176 -19 -183 -12 -6 6 -13 44 -15 84 l-4 73 21 -27 c40 -51 106 -34 208 54
34 29 52 35 52 18z m970 -153 c0 -22 -33 -46 -76 -55 -29 -6 -39 -13 -39 -27
0 -15 10 -22 38 -29 20 -5 37 -15 37 -23 0 -17 -63 -49 -68 -35 -2 6 -13 25
-25 43 -68 98 -176 67 -241 -69 -25 -52 -36 -64 -74 -80 l-45 -20 -66 31 c-61
29 -74 31 -176 32 -108 0 -112 -1 -195 -40 l-85 -40 -135 0 c-120 0 -140 3
-177 23 l-43 22 0 60 c0 32 5 62 10 65 6 4 117 17 246 30 129 13 238 27 243
30 5 3 34 6 63 6 29 1 60 5 69 9 22 12 437 60 527 61 62 1 164 10 205 18 4 0
7 -5 7 -12z"></path>
<path d="M3807 1453 c-12 -12 -7 -22 8 -17 8 4 15 10 15 15 0 11 -14 12 -23 2z"></path>
<path d="M4516 1391 c-20 -38 -66 -138 -105 -222 -127 -283 -140 -308 -178
-349 -35 -39 -40 -42 -78 -37 -46 7 -74 34 -118 116 -29 54 -51 71 -69 53 -16
-16 37 -136 79 -183 37 -41 105 -66 149 -55 76 19 119 78 218 298 67 148 166
409 166 437 0 6 -7 11 -15 11 -8 0 -30 -30 -49 -69z"></path>
<path d="M337 563 c-22 -21 11 -73 46 -73 21 0 21 1 0 45 -16 33 -32 43 -46
28z"></path>
<path d="M880 547 c-9 -7 -42 -46 -75 -87 -32 -41 -85 -104 -116 -139 -53 -59
-63 -81 -39 -81 5 0 34 23 65 51 30 29 59 48 63 44 4 -3 8 -52 8 -108 1 -79 4
-102 15 -102 37 0 48 89 25 207 l-13 66 54 71 c30 39 51 76 48 81 -8 13 -16
12 -35 -3z"></path>
<path d="M1146 518 c-8 -13 -20 -44 -27 -71 -6 -26 -15 -50 -20 -53 -5 -3 -23
6 -40 20 -32 27 -69 35 -69 14 0 -6 21 -31 47 -55 l47 -44 -14 -62 c-16 -78
-17 -96 -5 -97 5 -1 20 27 33 62 13 34 25 64 27 66 2 2 27 -9 55 -23 77 -39
86 -18 16 34 -31 23 -56 46 -56 52 0 22 32 134 42 146 10 13 3 33 -12 33 -5 0
-16 -10 -24 -22z"></path>
<path d="M1904 527 c-7 -20 -2 -47 11 -50 14 -3 19 43 6 56 -7 7 -12 6 -17 -6z"></path>
<path d="M3497 533 c-3 -5 -8 -126 -12 -270 l-7 -263 35 0 34 0 7 217 c7 210
4 268 -16 306 -9 17 -33 23 -41 10z"></path>
<path d="M1834 486 c-4 -10 -2 -22 4 -28 8 -8 13 -7 18 6 4 10 2 22 -4 28 -8
8 -13 7 -18 -6z"></path>
<path d="M468 451 c-14 -15 -30 -42 -37 -60 -8 -17 -18 -31 -24 -31 -6 0 -33
17 -61 38 -66 50 -94 65 -112 58 -26 -10 -14 -25 71 -87 47 -34 85 -65 85 -70
0 -5 -14 -37 -31 -70 -34 -69 -33 -113 3 -69 11 14 31 46 44 72 13 27 26 48
28 48 2 0 20 -7 39 -15 76 -31 91 -11 23 29 l-45 26 15 38 c9 20 29 53 44 73
16 20 26 39 23 43 -14 14 -43 4 -65 -23z"></path>
<path d="M1610 458 c0 -9 7 -21 15 -28 17 -14 89 -19 101 -7 15 14 -21 37 -69
43 -38 6 -47 4 -47 -8z"></path>
<path d="M570 380 c-12 -23 -6 -40 15 -40 17 0 38 36 30 50 -10 17 -34 11 -45
-10z"></path>
<path d="M1385 353 c-89 -4 -101 -8 -85 -28 23 -27 205 -14 205 15 0 17 -15
18 -120 13z"></path>
<path d="M1804 303 c-16 -31 -49 -78 -72 -105 -36 -40 -41 -49 -27 -54 25 -10
57 12 92 64 35 51 66 129 57 143 -11 18 -22 8 -50 -48z"></path>
<path d="M1652 343 c-31 -6 -23 -27 12 -31 29 -4 60 14 50 29 -5 9 -21 10 -62
2z"></path>
<path d="M205 270 c-4 -7 -3 -16 3 -22 14 -14 47 -6 47 12 0 18 -40 26 -50 10z"></path>
<path d="M4740 278 c0 -2 9 -27 20 -57 12 -29 30 -90 40 -134 19 -78 25 -95
35 -86 14 14 -67 279 -86 279 -5 0 -9 -1 -9 -2z"></path>
<path d="M3742 116 c3 -93 10 -128 22 -115 8 9 -7 219 -16 219 -6 0 -9 -40 -6
-104z"></path>
<path d="M425 170 c-8 -14 3 -30 21 -30 8 0 14 9 14 20 0 21 -24 28 -35 10z"></path>
</g>
</svg>